<svg width="43" height="50" viewBox="0 0 43 50" fill="none" xmlns="http://www.w3.org/2000/svg">
<path d="M11.2894 20.2381V8.54355H21.8594C22.8663 8.54355 23.8368 8.62516 24.7716 8.78871C25.7063 8.95194 26.5334 9.24355 27.2525 9.66387C27.9713 10.0842 28.5466 10.6677 28.9782 11.4145C29.4095 12.1616 29.6255 13.1187 29.6255 14.2855C29.6255 16.3865 28.9782 17.9039 27.6838 18.8374C26.3897 19.7713 24.7358 20.2381 22.7222 20.2381H11.2894ZM0 0V50H24.8796C27.1806 50 29.4218 49.72 31.6029 49.1597C33.7841 48.5994 35.7255 47.7358 37.4273 46.5687C39.1289 45.4016 40.4833 43.8958 41.4899 42.0519C42.4969 40.2077 43 38.0252 43 35.5042C43 32.3761 42.2209 29.7035 40.6632 27.4861C39.105 25.2684 36.744 23.7161 33.5801 22.829C35.8811 21.7555 37.6191 20.3781 38.7937 18.6974C39.9679 17.0168 40.5552 14.9161 40.5552 12.3948C40.5552 10.0606 40.1597 8.1 39.3687 6.51258C38.5777 4.92548 37.4631 3.65323 36.0249 2.69613C34.587 1.73903 32.8613 1.05032 30.8477 0.630322C28.8345 0.21 26.6053 0 24.1605 0H0ZM11.2894 41.4565V27.731H23.5851C26.0299 27.731 27.9955 28.2794 29.4817 29.3768C30.9676 30.4739 31.7109 32.3061 31.7109 34.8739C31.7109 36.1813 31.483 37.2548 31.0276 38.0952C30.5721 38.9355 29.961 39.601 29.1939 40.091C28.4271 40.5813 27.54 40.9313 26.5334 41.1416C25.5265 41.3513 24.4722 41.4565 23.3695 41.4565H11.2894Z" fill="#CC2B5E"/>
</svg>
