<svg width="132" height="34" viewBox="0 0 132 34" fill="none" xmlns="http://www.w3.org/2000/svg">
<path d="M49.7943 21.9251C49.2377 18.6976 46.9773 15.9866 40.2818 13.4587C37.9559 12.4635 35.3629 11.7508 34.5902 10.1096C34.3159 9.15454 34.2794 8.61652 34.453 8.03837C34.9514 6.16209 37.3568 5.57716 39.2633 6.11518C40.4912 6.49835 41.6536 7.37941 42.3546 8.78493C45.6335 6.80805 45.6268 6.82105 47.9163 5.46244C47.0781 4.25246 46.6308 3.6941 46.0821 3.17642C44.11 1.12551 41.4229 0.0692504 37.1255 0.150066L34.887 0.419639C32.742 0.924315 30.6977 1.97266 29.4989 3.37818C25.902 7.17822 26.9278 13.8289 31.3047 16.5659C35.6166 19.5792 41.951 20.2647 42.7601 23.0826C43.5473 26.5322 40.0372 27.6489 36.5483 27.2522C33.9772 26.7543 32.5471 25.5376 31.0012 23.325C28.1557 24.8582 28.1557 24.8582 25.2301 26.4248C25.9238 27.8371 26.6528 28.4763 27.8158 29.6999C33.3198 34.8981 47.0933 34.6426 49.5637 26.7747C49.6638 26.5045 50.329 24.7028 49.7943 21.9251ZM21.3363 0.566579H14.2293L14.2002 17.6747C14.2002 21.3131 14.4023 24.6486 13.7668 25.6709C12.727 27.6817 10.0327 27.4325 8.80476 27.0425C7.555 26.4706 6.9195 25.6574 6.18324 24.5079C5.98112 24.1778 5.82938 23.9224 5.77839 23.9026L0 27.1974C0.960839 29.0335 2.3763 30.6273 4.18933 31.6626C6.89765 33.1761 10.5377 33.64 14.3446 32.8262C16.8223 32.1543 18.96 30.7623 20.0793 28.6436C21.6975 25.8659 21.3503 22.5038 21.3357 18.7852C21.3722 12.7183 21.3363 6.65264 21.3363 0.566579Z" fill="#CC2B5E"/>
<path d="M72.9531 1.62932C71.1331 6.59532 69.3131 11.5613 67.4931 16.5273C65.6731 21.4933 63.8401 26.4593 61.9941 31.4253H58.6791C60.5251 26.4593 62.3581 21.4933 64.1781 16.5273C65.9981 11.5613 67.8311 6.59532 69.6771 1.62932H72.9531Z" fill="#CC2B5E"/>
<path d="M123.375 0.299763C125.104 0.702029 126.675 1.60746 127.89 2.90179C128.56 3.60229 129.141 4.38198 129.621 5.22351C129.643 5.31492 126.505 7.42336 124.602 8.59945C124.533 8.64617 124.258 8.34757 123.948 7.88851C123.6 7.29086 123.106 6.79108 122.513 6.43587C121.92 6.08065 121.246 5.88158 120.555 5.85726C118.368 5.70695 116.958 6.85257 116.968 8.76804C116.949 9.23863 117.057 9.7057 117.279 10.1209C117.76 11.1162 118.654 11.7134 121.461 12.9301C126.629 15.1543 128.847 16.6209 130.216 18.7049C130.99 20.0217 131.466 21.4918 131.612 23.0121C131.758 24.5325 131.57 26.0664 131.061 27.5063C130.361 29.0855 129.251 30.4486 127.847 31.454C126.443 32.4595 124.795 33.0707 123.074 33.2243C121.245 33.4341 119.398 33.415 117.574 33.1674C114.78 32.7083 112.206 31.3673 110.229 29.3405C109.481 28.4993 108.849 27.5629 108.348 26.5557C108.558 26.3989 108.78 26.2577 109.012 26.1332C109.333 25.9504 110.547 25.2516 111.693 24.5874L113.773 23.3687L114.208 24.0024C114.94 25.0494 115.872 25.9413 116.95 26.6268C118.039 27.224 119.272 27.507 120.512 27.4443C121.753 27.3815 122.951 26.9754 123.974 26.2713C124.502 25.757 124.832 25.0734 124.906 24.3403C124.98 23.6072 124.794 22.8713 124.38 22.2616C123.82 21.4593 122.674 20.7849 119.418 19.3732C116.865 18.5123 114.539 17.0853 112.615 15.199C111.699 14.1548 111.022 12.9229 110.633 11.5894C110.345 10.0704 110.302 8.51505 110.507 6.98257C110.889 5.21913 111.804 3.61582 113.128 2.38991C114.452 1.164 116.121 0.374759 117.909 0.129139C119.729 -0.0883759 121.572 -0.0308582 123.375 0.299763ZM106.428 3.31211L106.45 6.26554H97.0457V32.9724H90.4137V6.27164H81.009V3.37101C80.984 2.37767 81.0111 1.3837 81.0903 0.3932C81.1248 0.346481 86.8428 0.324137 93.7754 0.336325L106.392 0.370856L106.428 3.31211Z" fill="#CC2B5E"/>
</svg>
