<svg width="54" height="56" viewBox="0 0 54 56" fill="none" xmlns="http://www.w3.org/2000/svg">
<path d="M47.25 37.3333V44.3333C47.25 48.1996 38.1825 51.3333 27 51.3333C15.8175 51.3333 6.75 48.1996 6.75 44.3333V37.3333C6.75 41.1996 15.8175 44.3333 27 44.3333C38.1825 44.3333 47.25 41.1996 47.25 37.3333ZM27 35C15.8175 35 6.75 31.8663 6.75 28V35C6.75 38.8663 15.8175 42 27 42C38.1825 42 47.25 38.8663 47.25 35V28C47.25 31.8663 38.1825 35 27 35ZM27 4.66663C15.8175 4.66663 6.75 7.80029 6.75 11.6666V16.3333C6.75 20.1996 15.8175 23.3333 27 23.3333C38.1825 23.3333 47.25 20.1996 47.25 16.3333V11.6666C47.25 7.80029 38.1825 4.66663 27 4.66663ZM27 25.6666C15.8175 25.6666 6.75 22.533 6.75 18.6666V25.6666C6.75 29.533 15.8175 32.6666 27 32.6666C38.1825 32.6666 47.25 29.533 47.25 25.6666V18.6666C47.25 22.533 38.1825 25.6666 27 25.6666Z" fill="#CC2B5E"/>
</svg>
