<svg width="135" height="48" viewBox="0 0 135 48" fill="none" xmlns="http://www.w3.org/2000/svg">
<path d="M20.5982 24.2037L11.154 17.3528C10.9963 17.2382 10.819 17.1731 10.6372 17.1628H10.5381C10.356 17.1752 10.1788 17.2422 10.0213 17.3582L0.568469 24.2037C0.395062 24.3305 0.251221 24.5127 0.151427 24.7319C0.0516322 24.9511 -0.000594078 25.1996 5.09811e-06 25.4523L0.0215378 43.8987C0.0215378 44.1538 0.124895 44.3981 0.30577 44.5175C0.392698 44.5814 0.491525 44.6151 0.592155 44.6151C0.692786 44.6151 0.791613 44.5814 0.878541 44.5175L6.48997 40.4678C6.6628 40.3401 6.80616 40.1578 6.90587 39.9388C7.00558 39.7198 7.05817 39.4717 7.05844 39.2192V30.6094C7.05844 30.0937 7.27377 29.616 7.6269 29.3609L10.017 27.6237C10.1909 27.5014 10.3869 27.4376 10.5861 27.4385C10.7852 27.4395 10.9808 27.5051 11.154 27.6291L13.5398 29.3663C13.714 29.4924 13.8587 29.6743 13.9593 29.8936C14.0598 30.1128 14.1127 30.3616 14.1126 30.6149V39.2301C14.1126 39.7404 14.3279 40.2181 14.681 40.4786L20.2838 44.5175C20.3702 44.5803 20.4681 44.6134 20.5677 44.6135C20.6674 44.6136 20.7653 44.5806 20.8517 44.518C20.9381 44.4553 21.0099 44.365 21.0599 44.2564C21.1099 44.1477 21.1363 44.0243 21.1365 43.8987L21.1538 25.4523C21.1544 25.2008 21.1031 24.9535 21.0049 24.7346C20.9068 24.5157 20.7651 24.3327 20.5939 24.2037H20.5982ZM77.2164 4.0473L71.5964 0.0844236C71.5082 0.0271611 71.4102 -0.00180661 71.3111 8.72377e-05C71.2119 0.00198109 71.1146 0.0346781 71.0279 0.0952808C70.9428 0.159119 70.8722 0.249694 70.8232 0.358162C70.7741 0.466629 70.7482 0.589281 70.748 0.714141V18.9868C70.7474 19.0748 70.7285 19.161 70.6933 19.237C70.6581 19.313 70.6078 19.376 70.5473 19.4199C70.4868 19.4638 70.4182 19.487 70.3484 19.4872C70.2786 19.4874 70.21 19.4646 70.1494 19.4211L67.7808 17.7111C67.6063 17.5884 67.4099 17.5241 67.2101 17.5241C67.0104 17.5241 66.814 17.5884 66.6395 17.7111L57.1953 24.5891C57.0211 24.7153 56.8764 24.8972 56.7758 25.1164C56.6752 25.3356 56.6223 25.5845 56.6225 25.8377V39.5775C56.6225 40.0932 56.8378 40.5655 57.1824 40.8261L66.6352 47.6987C66.8083 47.8266 67.0052 47.894 67.2058 47.894C67.4064 47.894 67.6034 47.8266 67.7765 47.6987L77.225 40.8206C77.3978 40.6924 77.5413 40.5101 77.6417 40.2913C77.742 40.0725 77.7958 39.8248 77.7978 39.5721V5.30674C77.7973 5.04961 77.7424 4.7973 77.6387 4.57589C77.5349 4.35448 77.3862 4.172 77.2078 4.0473H77.2164ZM70.7135 35.0609C70.7134 35.123 70.7007 35.1841 70.6766 35.2382C70.6525 35.2924 70.6177 35.3379 70.5757 35.3703L67.3329 37.7318C67.2898 37.7638 67.2408 37.7806 67.1908 37.7806C67.1408 37.7806 67.0917 37.7638 67.0487 37.7318L63.8015 35.3703C63.759 35.3382 63.7236 35.2929 63.6988 35.2388C63.6739 35.1846 63.6604 35.1234 63.6594 35.0609V30.338C63.6604 30.2748 63.674 30.2129 63.6988 30.1579C63.7236 30.1029 63.7589 30.0566 63.8015 30.0232L67.0443 27.6617C67.0866 27.6296 67.135 27.6127 67.1843 27.6127C67.2336 27.6127 67.282 27.6296 67.3243 27.6617L70.5671 30.0232C70.6532 30.0883 70.7092 30.2077 70.7092 30.338V35.0609H70.7135ZM105.394 24.3937L96.0059 17.5211C95.8325 17.3943 95.6357 17.3275 95.4353 17.3275C95.2348 17.3275 95.038 17.3943 94.8646 17.5211L85.4204 24.3937C85.247 24.5205 85.1031 24.7027 85.0033 24.9219C84.9036 25.1411 84.8513 25.3896 84.8519 25.6423V39.3766C84.8519 39.9032 85.0673 40.3809 85.4247 40.6252L94.813 47.373C95.1575 47.6173 95.5882 47.6227 95.9327 47.373L101.609 43.4101C101.697 43.3472 101.77 43.2561 101.822 43.1462C101.873 43.0362 101.9 42.9111 101.901 42.7835C101.902 42.6559 101.876 42.5302 101.826 42.4192C101.777 42.3081 101.705 42.2155 101.617 42.1507L92.1171 35.278C92.0288 35.2164 91.9554 35.1259 91.9046 35.016C91.8538 34.9061 91.8275 34.7809 91.8285 34.6538V30.3489C91.8285 30.0937 91.9362 29.8603 92.1085 29.7246L95.0714 27.5749C95.1569 27.5086 95.2552 27.4735 95.3556 27.4735C95.456 27.4735 95.5543 27.5086 95.6398 27.5749L98.6027 29.7192C98.775 29.844 98.887 30.0829 98.887 30.3434V33.7363C98.8872 33.862 98.9136 33.9853 98.9636 34.094C99.0136 34.2027 99.0854 34.2929 99.1718 34.3556C99.2582 34.4183 99.3561 34.4513 99.4558 34.4512C99.5554 34.4511 99.6533 34.418 99.7397 34.3552L105.398 30.2023C105.571 30.0738 105.714 29.8913 105.813 29.6725C105.913 29.4536 105.966 29.206 105.967 28.9537V25.626C105.967 25.1157 105.752 24.6488 105.394 24.3774V24.3937ZM48.9353 24.3231L39.4911 17.4505C39.3165 17.3254 39.1191 17.2595 38.9183 17.2595C38.7174 17.2595 38.5201 17.3254 38.3455 17.4505L28.8969 24.3231C28.7257 24.4522 28.5841 24.6351 28.4859 24.854C28.3878 25.0729 28.3365 25.3203 28.3371 25.5717V39.3224C28.3371 39.8381 28.5524 40.3104 28.9056 40.5709L38.3498 47.4435C38.5236 47.5687 38.7203 47.6346 38.9204 47.6346C39.1206 47.6346 39.3173 47.5687 39.4911 47.4435L48.9353 40.5601C49.1084 40.4328 49.252 40.2505 49.3518 40.0315C49.4515 39.8124 49.5039 39.5641 49.5038 39.3115V25.5717C49.5044 25.319 49.4521 25.0705 49.3524 24.8513C49.2526 24.6321 49.1087 24.45 48.9353 24.3231ZM133.585 23.7911L124.67 17.3039C124.383 17.1063 124.061 17.0027 123.734 17.0027C123.406 17.0027 123.084 17.1063 122.797 17.3039L113.891 23.7911C113.606 23.9982 113.369 24.2964 113.204 24.6557C113.039 25.015 112.952 25.4227 112.952 25.8377V38.7849C112.952 39.6318 113.305 40.4135 113.887 40.8369L116.221 42.5307C117.349 43.2364 117.75 43.2364 118.271 43.2364C119.95 43.2364 120.906 41.9552 120.906 39.7295V26.9289C120.906 26.8425 120.879 26.7596 120.831 26.6985C120.782 26.6375 120.716 26.6031 120.648 26.6031H119.515C119.447 26.6031 119.381 26.6375 119.333 26.6985C119.284 26.7596 119.257 26.8425 119.257 26.9289V39.7186C119.257 40.7066 118.439 41.6892 117.121 40.8586L114.679 39.0835C114.635 39.0544 114.599 39.0105 114.574 38.9569C114.549 38.9032 114.536 38.8418 114.537 38.7795V25.8431C114.537 25.7129 114.593 25.5934 114.679 25.5283L123.598 19.0574C123.639 19.0257 123.686 19.0089 123.734 19.0089C123.782 19.0089 123.828 19.0257 123.869 19.0574L132.771 25.5174C132.857 25.5826 132.909 25.702 132.909 25.8269V38.7741C132.908 38.8361 132.895 38.8969 132.871 38.951C132.847 39.0051 132.813 39.0507 132.771 39.0835L123.865 45.5598C123.824 45.5915 123.777 45.6083 123.729 45.6083C123.681 45.6083 123.634 45.5915 123.594 45.5598L121.311 43.8552C121.234 43.8009 121.152 43.7901 121.083 43.8389C120.661 44.164 120.21 44.4246 119.739 44.6152C119.593 44.6804 119.378 44.7781 119.825 45.1038L122.797 47.3187C123.077 47.525 123.4 47.6444 123.731 47.6444C124.063 47.6444 124.377 47.525 124.67 47.3187L133.576 40.8369C133.861 40.6279 134.097 40.3284 134.261 39.9683C134.425 39.6082 134.511 39.2001 134.511 38.7849V25.8431C134.511 24.9963 134.153 24.2146 133.581 23.7911H133.585ZM126.479 36.7438C124.123 36.7438 123.607 35.9946 123.434 34.518C123.424 34.4414 123.392 34.3719 123.345 34.3221C123.298 34.2723 123.238 34.2455 123.176 34.2466H122.022C121.988 34.2459 121.954 34.2538 121.922 34.2699C121.891 34.286 121.862 34.31 121.838 34.3404C121.814 34.3708 121.795 34.407 121.782 34.4468C121.769 34.4867 121.763 34.5294 121.763 34.5723C121.763 36.4615 122.582 38.7198 126.479 38.7198C129.3 38.7198 130.915 37.3083 130.915 34.8655C130.915 32.4443 129.623 31.7983 126.88 31.3369C124.11 30.8809 123.83 30.6474 123.83 29.8277C123.83 29.1492 124.072 28.2534 126.113 28.2534C127.948 28.2534 128.619 28.742 128.899 30.3054C128.912 30.3791 128.945 30.4448 128.992 30.4914C129.039 30.5379 129.098 30.5624 129.158 30.5606H130.312C130.348 30.5594 130.383 30.5492 130.415 30.5305C130.448 30.5119 130.477 30.4852 130.501 30.452C130.547 30.3814 130.571 30.2931 130.57 30.2023C130.389 27.526 128.977 26.2774 126.126 26.2774C123.585 26.2774 122.078 27.6346 122.078 29.8983C122.078 32.3575 123.585 33.036 126.018 33.34C128.934 33.7038 129.162 34.2466 129.162 34.9686C129.162 36.2172 128.361 36.7492 126.483 36.7492L126.479 36.7438ZM95.3039 29.5672L93.4952 30.8863C93.4617 30.9086 93.4339 30.9423 93.4148 30.9836C93.3958 31.0249 93.3863 31.072 93.3875 31.1197V33.758C93.3875 33.8558 93.4306 33.9426 93.4952 33.9915L95.3039 35.3106C95.3728 35.3649 95.4546 35.3649 95.5279 35.3106L97.3366 33.9915C97.3709 33.9685 97.3995 33.934 97.4193 33.8919C97.439 33.8498 97.4492 33.8016 97.4486 33.7526V31.1089C97.4483 31.0608 97.4382 31.0136 97.4194 30.9718C97.4005 30.93 97.3735 30.895 97.3409 30.87L95.5322 29.5454C95.4972 29.5243 95.459 29.5133 95.4202 29.5133C95.3814 29.5133 95.3432 29.5243 95.3082 29.5454L95.3039 29.5672Z" fill="#CC2B5E"/>
</svg>
