<svg width="55" height="55" viewBox="0 0 55 55" fill="none" xmlns="http://www.w3.org/2000/svg">
<path d="M27.5 31.7522C29.8731 31.7522 31.7969 29.8284 31.7969 27.4553C31.7969 25.0822 29.8731 23.1584 27.5 23.1584C25.1269 23.1584 23.2031 25.0822 23.2031 27.4553C23.2031 29.8284 25.1269 31.7522 27.5 31.7522Z" fill="#CC2B5E"/>
<path d="M27.5 37.3072C22.3354 37.4321 17.1837 36.7359 12.2375 35.2447C9.95263 34.5204 7.82158 33.3794 5.95203 31.8794C5.23863 31.3669 4.64453 30.7062 4.21049 29.9426C3.77646 29.179 3.51276 28.3305 3.4375 27.4553C3.4375 24.6142 6.55875 21.8298 11.7872 20.008C16.8656 18.3936 22.1717 17.6112 27.5 17.6911C32.7571 17.6176 37.9922 18.3859 43.0066 19.9667C45.2071 20.6682 47.2659 21.7541 49.0875 23.1739C49.7887 23.6624 50.3739 24.2992 50.8016 25.0391C51.2293 25.779 51.4891 26.6039 51.5625 27.4553C51.5625 30.4081 48.0734 33.4005 42.4531 35.2602C37.6027 36.7028 32.5597 37.3932 27.5 37.3072ZM27.5 19.7467C22.4024 19.6786 17.3264 20.4224 12.4627 21.9502C7.65016 23.6294 5.49313 25.9256 5.49313 27.4502C5.49313 29.0452 7.81172 31.5528 12.9027 33.2939C17.6345 34.7133 22.5614 35.3741 27.5 35.2516C32.3407 35.3381 37.1661 34.6831 41.8086 33.3094C47.0938 31.558 49.5 29.0469 49.5 27.4553C49.4133 26.9091 49.2142 26.3869 48.9155 25.9215C48.6167 25.4562 48.2246 25.0579 47.7641 24.7517C46.1343 23.4921 44.2951 22.5298 42.3311 21.9089C37.5341 20.4029 32.5273 19.6729 27.5 19.7467Z" fill="#CC2B5E"/>
<path d="M17.7375 48.8863C16.9357 48.9047 16.1434 48.7102 15.4413 48.3226C12.98 46.9029 12.1275 42.8088 13.1605 37.369C14.2994 32.163 16.2728 27.1756 19.0042 22.5998C21.5664 18.0091 24.8466 13.858 28.7203 10.3038C30.4273 8.74784 32.3965 7.50662 34.5366 6.63772C35.3106 6.27496 36.155 6.08691 37.0099 6.08691C37.8647 6.08691 38.7091 6.27496 39.4831 6.63772C42.0424 8.11241 42.8897 12.6293 41.6952 18.4266C40.5211 23.3501 38.599 28.0644 35.9958 32.4052C33.5238 36.9416 30.3469 41.0566 26.5839 44.5963C24.815 46.2133 22.762 47.4889 20.5288 48.3587C19.6347 48.6905 18.691 48.8689 17.7375 48.8863ZM20.7849 23.6207C18.1794 28.0023 16.288 32.7708 15.1817 37.7471C14.2313 42.7572 15.1439 45.7702 16.4708 46.5368C17.8458 47.3326 21.1836 46.578 25.2364 43.0374C28.8287 39.6462 31.8609 35.7073 34.2203 31.3671C36.7141 27.2172 38.5579 22.71 39.6877 18.0021C40.8117 12.5451 39.8406 9.20381 38.4622 8.40975C37.9456 8.2118 37.3935 8.12318 36.8408 8.14951C36.2882 8.17584 35.7471 8.31654 35.2516 8.56272C33.3467 9.34878 31.5953 10.4647 30.0781 11.8593C26.3771 15.2638 23.2439 19.2378 20.7969 23.631L20.7849 23.6207Z" fill="#CC2B5E"/>
<path d="M37.2574 48.9088C34.9285 48.9088 31.9705 47.4994 28.8905 44.8508C24.9489 41.2642 21.6133 37.0638 19.0128 32.4122C16.3157 27.8994 14.3579 22.9841 13.2138 17.8527C12.7176 15.5951 12.6256 13.2674 12.9422 10.9777C13.0154 10.1283 13.274 9.30529 13.6999 8.56673C14.1257 7.82816 14.7084 7.19202 15.4069 6.70315C17.9627 5.22331 22.2991 6.7444 26.7249 10.6735C30.404 14.1491 33.5283 18.1684 35.9889 22.5913C38.6844 26.9987 40.6627 31.8064 41.8499 36.8346C42.3674 39.175 42.4472 41.591 42.0853 43.9605C41.9992 44.8343 41.7252 45.6792 41.2819 46.4372C40.8387 47.1952 40.2368 47.8483 39.5175 48.3519C38.8269 48.7347 38.0468 48.9269 37.2574 48.9088ZM20.7917 31.3775C23.2864 35.823 26.4727 39.843 30.2311 43.2867C34.0966 46.6125 37.1628 47.3275 38.4811 46.5524C39.8561 45.7531 40.8702 42.491 39.8252 37.2127C38.6803 32.4121 36.7828 27.823 34.2031 23.6157C31.855 19.3826 28.8729 15.5338 25.3602 12.2031C21.1939 8.5044 17.8149 7.67768 16.4381 8.47518C16.009 8.82388 15.6569 9.25777 15.404 9.74944C15.151 10.2411 15.0028 10.7799 14.9686 11.3317C14.6953 13.3738 14.7844 15.448 15.2316 17.4591C16.3321 22.3664 18.2097 27.0662 20.7935 31.381L20.7917 31.3775Z" fill="#CC2B5E"/>
</svg>
