<svg width="17" height="16" viewBox="0 0 17 16" fill="none" xmlns="http://www.w3.org/2000/svg">
<path fill-rule="evenodd" clip-rule="evenodd" d="M1.81152 7.99965C1.81152 7.86705 1.8642 7.73987 1.95797 7.6461C2.05174 7.55233 2.17892 7.49965 2.31152 7.49965H14.1045L10.9575 4.35366C10.8636 4.25977 10.8109 4.13243 10.8109 3.99966C10.8109 3.86688 10.8636 3.73954 10.9575 3.64565C11.0514 3.55177 11.1787 3.49902 11.3115 3.49902C11.4443 3.49902 11.5716 3.55177 11.6655 3.64565L15.6655 7.64565C15.7121 7.6921 15.749 7.74728 15.7742 7.80802C15.7994 7.86877 15.8124 7.93389 15.8124 7.99965C15.8124 8.06542 15.7994 8.13054 15.7742 8.19129C15.749 8.25203 15.7121 8.30721 15.6655 8.35365L11.6655 12.3537C11.5716 12.4475 11.4443 12.5003 11.3115 12.5003C11.1787 12.5003 11.0514 12.4475 10.9575 12.3537C10.8636 12.2598 10.8109 12.1324 10.8109 11.9997C10.8109 11.8669 10.8636 11.7395 10.9575 11.6457L14.1045 8.49965H2.31152C2.17892 8.49965 2.05174 8.44698 1.95797 8.35321C1.8642 8.25944 1.81152 8.13226 1.81152 7.99965Z" fill="#DB14DF"/>
</svg>
