<svg width="30" height="28" viewBox="0 0 30 28" fill="none" xmlns="http://www.w3.org/2000/svg">
<path fill-rule="evenodd" clip-rule="evenodd" d="M9.33125 1.24399C10.7975 1.18099 11.265 1.16699 15 1.16699C18.735 1.16699 19.2025 1.18216 20.6675 1.24399C22.1325 1.30583 23.1325 1.52399 24.0075 1.84016C24.9237 2.16333 25.755 2.66849 26.4425 3.32183C27.1425 3.96233 27.6825 4.73699 28.0275 5.59333C28.3675 6.40999 28.6 7.34333 28.6675 8.70833C28.735 10.0792 28.75 10.5155 28.75 14.0003C28.75 17.4863 28.7337 17.9227 28.6675 19.2912C28.6012 20.6562 28.3675 21.5895 28.0275 22.4062C27.6825 23.2626 27.1416 24.0386 26.4425 24.68C25.755 25.3333 24.9237 25.8373 24.0075 26.1593C23.1325 26.4767 22.1325 26.6937 20.67 26.7567C19.2025 26.8197 18.735 26.8337 15 26.8337C11.265 26.8337 10.7975 26.8185 9.33125 26.7567C7.86875 26.6948 6.86875 26.4767 5.99375 26.1593C5.07615 25.8373 4.24478 25.3325 3.5575 24.68C2.85797 24.0391 2.31664 23.2635 1.97125 22.4073C1.6325 21.5907 1.4 20.6573 1.3325 19.2923C1.265 17.9215 1.25 17.4852 1.25 14.0003C1.25 10.5143 1.26625 10.078 1.3325 8.71066C1.39875 7.34333 1.6325 6.40999 1.97125 5.59333C2.31715 4.73709 2.8589 3.96152 3.55875 3.32066C4.24505 2.66791 5.07559 2.16268 5.9925 1.84016C6.8675 1.52399 7.8675 1.30699 9.33 1.24399H9.33125ZM20.5562 3.55399C19.1062 3.49216 18.6712 3.47933 15 3.47933C11.3287 3.47933 10.8938 3.49216 9.44375 3.55399C8.1025 3.61116 7.375 3.81999 6.89 3.99616C6.24875 4.22949 5.79 4.50599 5.30875 4.95516C4.85256 5.36939 4.50148 5.87365 4.28125 6.43099C4.0925 6.88366 3.86875 7.56266 3.8075 8.81449C3.74125 10.1678 3.7275 10.5738 3.7275 14.0003C3.7275 17.4268 3.74125 17.8328 3.8075 19.1862C3.86875 20.438 4.0925 21.117 4.28125 21.5697C4.50125 22.1262 4.8525 22.6313 5.30875 23.0455C5.7525 23.4713 6.29375 23.7992 6.89 24.0045C7.375 24.1807 8.1025 24.3895 9.44375 24.4467C10.8938 24.5085 11.3275 24.5213 15 24.5213C18.6725 24.5213 19.1062 24.5085 20.5562 24.4467C21.8975 24.3895 22.625 24.1807 23.11 24.0045C23.7513 23.7712 24.21 23.4947 24.6912 23.0455C25.1475 22.6313 25.4988 22.1262 25.7188 21.5697C25.9075 21.117 26.1313 20.438 26.1925 19.1862C26.2588 17.8328 26.2725 17.4268 26.2725 14.0003C26.2725 10.5738 26.2588 10.1678 26.1925 8.81449C26.1313 7.56266 25.9075 6.88366 25.7188 6.43099C25.4688 5.83249 25.1725 5.40433 24.6912 4.95516C24.2474 4.52941 23.7071 4.20174 23.11 3.99616C22.625 3.81999 21.8975 3.61116 20.5562 3.55399ZM13.2438 17.9565C14.2246 18.3376 15.3167 18.389 16.3337 18.102C17.3506 17.815 18.2292 17.2074 18.8195 16.3829C19.4098 15.5585 19.6751 14.5683 19.5701 13.5816C19.465 12.5949 18.9963 11.6728 18.2437 10.9728C17.764 10.5254 17.184 10.1828 16.5454 9.96966C15.9068 9.75655 15.2255 9.67825 14.5506 9.74038C13.8757 9.80251 13.2239 10.0035 12.6423 10.329C12.0606 10.6544 11.5634 11.0962 11.1866 11.6225C10.8098 12.1488 10.5627 12.7465 10.4631 13.3726C10.3636 13.9987 10.4139 14.6377 10.6107 15.2434C10.8074 15.8492 11.1456 16.4067 11.6009 16.8758C12.0562 17.345 12.6173 17.714 13.2438 17.9565ZM10.0025 9.33599C10.6588 8.72346 11.4379 8.23758 12.2954 7.90608C13.1528 7.57458 14.0719 7.40396 15 7.40396C15.9281 7.40396 16.8472 7.57458 17.7046 7.90608C18.5621 8.23758 19.3412 8.72346 19.9975 9.33599C20.6538 9.94852 21.1744 10.6757 21.5295 11.476C21.8847 12.2763 22.0675 13.1341 22.0675 14.0003C22.0675 14.8666 21.8847 15.7243 21.5295 16.5246C21.1744 17.325 20.6538 18.0521 19.9975 18.6647C18.6721 19.9017 16.8744 20.5967 15 20.5967C13.1256 20.5967 11.3279 19.9017 10.0025 18.6647C8.67708 17.4276 7.93247 15.7498 7.93247 14.0003C7.93247 12.2509 8.67708 10.573 10.0025 9.33599ZM23.635 8.38633C23.7976 8.24314 23.9278 8.07095 24.0179 7.87996C24.1079 7.68897 24.156 7.48306 24.1593 7.27441C24.1625 7.06577 24.1209 6.85863 24.0369 6.66527C23.9528 6.47191 23.828 6.29625 23.67 6.1487C23.5119 6.00115 23.3237 5.88471 23.1165 5.80626C22.9093 5.72782 22.6874 5.68896 22.4638 5.69201C22.2403 5.69505 22.0197 5.73992 21.815 5.82397C21.6104 5.90802 21.4259 6.02954 21.2725 6.18132C20.9741 6.47653 20.8108 6.86863 20.8171 7.27441C20.8235 7.68019 20.999 8.06768 21.3064 8.35464C21.6139 8.6416 22.0291 8.80543 22.4638 8.81134C22.8986 8.81726 23.3187 8.6648 23.635 8.38633Z" fill="#DB14DF"/>
</svg>
