<svg width="155" height="155" viewBox="0 0 155 155" fill="none" xmlns="http://www.w3.org/2000/svg">
<path d="M0 135.014C0 146.053 8.94822 155 19.9859 155H135.013C146.053 155 155 146.052 155 135.014V19.9865C155 8.94701 146.052 0 135.014 0H19.9865C8.94701 0 0 8.94822 0 19.9859V135.013V135.014Z" fill="#202022"/>
<path d="M64.2754 68.5621V46.612H83.5965C85.4371 46.612 87.2111 46.7652 88.9197 47.0722C90.6284 47.3785 92.1402 47.9259 93.4547 48.7148C94.7686 49.5037 95.8203 50.599 96.6092 52.0007C97.3975 53.403 97.7923 55.1994 97.7923 57.3894C97.7923 61.3328 96.6092 64.1809 94.243 65.9331C91.8775 67.686 88.8544 68.5621 85.1737 68.5621H64.2754ZM43.6392 30.5762V124.424H89.1171C93.3233 124.424 97.4199 123.898 101.407 122.847C105.394 121.795 108.943 120.174 112.054 117.983C115.164 115.793 117.64 112.967 119.48 109.506C121.32 106.044 122.24 101.948 122.24 97.2159C122.24 91.3447 120.816 86.3283 117.968 82.1663C115.12 78.0037 110.804 75.0902 105.021 73.4252C109.227 71.4102 112.404 68.8248 114.551 65.6703C116.697 62.5159 117.771 58.573 117.771 53.8407C117.771 49.4595 117.048 45.7795 115.602 42.8C114.156 39.8211 112.119 37.4331 109.49 35.6367C106.862 33.8403 103.707 32.5476 100.026 31.7593C96.3464 30.9703 92.2716 30.5762 87.8027 30.5762H43.6392ZM64.2754 108.388V82.6259H86.751C91.2199 82.6259 94.8128 83.6552 97.5295 85.715C100.246 87.7742 101.604 91.2133 101.604 96.0328C101.604 98.4868 101.188 100.502 100.355 102.079C99.5227 103.656 98.4056 104.905 97.0034 105.825C95.6017 106.745 93.9803 107.402 92.1402 107.797C90.2996 108.191 88.3724 108.388 86.3568 108.388H64.2754Z" fill="#A044FF"/>
</svg>
