<svg width="92" height="128" viewBox="0 0 92 128" fill="none" xmlns="http://www.w3.org/2000/svg">
<g clip-path="url(#clip0_17:2)">
<path d="M22.5403 0H44.9894V41.4825H22.5406C-7.06446 40.4132 -7.36345 1.123 22.5403 0ZM22.5403 84.7393H44.9894V43.2567H22.5406C-7.36318 44.3797 -7.06418 83.67 22.5406 84.7393H22.5403ZM69.3594 0H46.9098V41.4825H69.3594C99.3628 39.999 98.9888 0.84675 69.3594 0ZM44.9894 107.255V86.5135H22.5406C4.22124 86.5135 -7.36318 106.357 5.37746 120.61C17.5247 134.738 44.9897 127.694 44.9897 107.255H44.9894ZM91.8545 63.998C91.8545 48.058 73.0491 38.0417 58.0864 46.0117C43.1237 53.9817 43.1234 74.0145 58.0864 81.9845C73.0494 89.9545 91.8545 79.938 91.8545 63.998Z" fill="#A044FF"/>
</g>
<defs>
<clipPath id="clip0_17:2">
<rect width="92" height="128" fill="white"/>
</clipPath>
</defs>
</svg>
