<svg width="155" height="155" viewBox="0 0 155 155" fill="none" xmlns="http://www.w3.org/2000/svg">
<path fill-rule="evenodd" clip-rule="evenodd" d="M0 0H155V155H0V0ZM118.491 129.942C111.303 129.942 107.241 126.196 104.121 121.094L92.2831 127.972C96.5585 136.419 105.297 142.865 118.827 142.865C132.661 142.865 142.962 135.683 142.962 122.566C142.962 110.405 135.974 105 123.6 99.6844L119.957 98.1279C113.705 95.4154 110.999 93.6523 110.999 89.28C110.999 85.7473 113.712 83.0412 117.974 83.0412C122.153 83.0412 124.846 84.8044 127.345 89.28L138.686 82.0015C133.888 73.5604 127.236 70.3377 117.974 70.3377C104.967 70.3377 96.6425 78.656 96.6425 89.5835C96.6425 101.435 103.618 107.047 114.132 111.522L117.774 113.085C124.42 115.992 128.379 117.761 128.379 122.754C128.379 126.926 124.523 129.942 118.491 129.942ZM62.0452 129.845C57.04 129.845 54.954 126.422 52.6677 122.353L40.8102 129.535C44.246 136.807 51.0015 142.839 62.6587 142.839C75.569 142.839 84.4104 135.974 84.4104 120.894V71.1644H69.8469V120.7C69.8469 127.978 66.8244 129.845 62.0387 129.845H62.0452Z" fill="#202022"/>
</svg>
