<svg width="155" height="101" viewBox="0 0 155 101" fill="none" xmlns="http://www.w3.org/2000/svg">
<g clip-path="url(#clip0_6:36)">
<path d="M76.6251 100.709C76.1005 100.709 75.6107 100.56 75.1557 100.3L70.5023 97.3631C69.8024 96.9539 70.1524 96.8053 70.3625 96.731C71.307 96.3965 71.482 96.3219 72.4616 95.7275C72.5667 95.6528 72.7068 95.6901 72.8116 95.7644L76.3805 98.0321C76.5204 98.1064 76.6954 98.1064 76.8001 98.0321L90.7607 89.4446C90.9006 89.3702 90.9708 89.2213 90.9708 89.0357V71.8979C90.9708 71.7117 90.9006 71.5634 90.7607 71.4887L76.8001 62.9385C76.6603 62.8639 76.4853 62.8639 76.3805 62.9385L62.4199 71.4887C62.2801 71.563 62.2098 71.749 62.2098 71.8976V89.0354C62.2098 89.1843 62.2801 89.3699 62.4199 89.4446L66.2338 91.7865C68.2981 92.9017 69.5926 91.6006 69.5926 90.2995V73.3846C69.5926 73.1617 69.7676 72.9384 70.0125 72.9384H71.7968C72.0069 72.9384 72.2167 73.1244 72.2167 73.3846V90.2995C72.2167 93.2362 70.7121 94.9465 68.088 94.9465C67.2834 94.9465 66.6537 94.9465 64.869 94.0169L61.1954 91.7865C60.2856 91.2291 59.7259 90.1879 59.7259 89.0727V71.9349C59.7259 70.8197 60.2856 69.7785 61.1954 69.2211L75.1557 60.6335C76.0306 60.1131 77.2203 60.1131 78.0949 60.6335L92.0552 69.2211C92.9649 69.7785 93.525 70.8197 93.525 71.9349V89.0727C93.525 90.1879 92.9649 91.2291 92.0552 91.7865L78.0949 100.374C77.6399 100.597 77.1153 100.709 76.6254 100.709H76.6251ZM80.9288 88.9241C74.806 88.9241 73.5463 85.9501 73.5463 83.4222C73.5463 83.1989 73.7213 82.976 73.9662 82.976H75.7857C75.9954 82.976 76.1704 83.1247 76.1704 83.3479C76.4505 85.318 77.2551 86.2846 80.9639 86.2846C83.9029 86.2846 85.1629 85.5782 85.1629 83.9053C85.1629 82.9387 84.8126 82.2327 80.2292 81.7492C76.4153 81.3401 74.0361 80.4481 74.0361 77.2139C74.0361 74.2026 76.4156 72.418 80.4042 72.418C84.8825 72.418 87.087 74.0539 87.3671 77.6224C87.3671 77.7343 87.3319 77.8456 87.262 77.9572C87.1918 78.0315 87.087 78.1059 86.982 78.1059H85.1625C84.9876 78.1059 84.8126 77.9572 84.7778 77.7713C84.3579 75.7269 83.2732 75.0575 80.4042 75.0575C77.1852 75.0575 76.8001 76.2473 76.8001 77.1393C76.8001 78.2175 77.2551 78.552 81.5936 79.1467C85.8973 79.7418 87.9268 80.5968 87.9268 83.7937C87.8917 87.0653 85.3726 88.9241 80.9288 88.9241Z" fill="#539E43"/>
<path d="M33.3093 33.6812C33.3093 33.0122 32.9593 32.3798 32.3996 32.0453L17.5644 22.9746C17.3191 22.8257 17.0394 22.7514 16.7597 22.7141H16.6195C16.3398 22.7141 16.0598 22.8257 15.8149 22.9746L0.979663 32.0453C0.419605 32.3798 0.0699463 33.0119 0.0699463 33.6812L0.105063 58.0682C0.105063 58.4028 0.280044 58.7373 0.559771 58.8862C0.8398 59.0721 1.18946 59.0721 1.43467 58.8862L10.2518 53.5329C10.8116 53.1984 11.1615 52.5663 11.1615 51.8973V40.4843C11.1615 39.8152 11.5112 39.1832 12.0712 38.8486L15.8149 36.5437C16.0949 36.3577 16.4097 36.2831 16.7246 36.2831C17.0394 36.2831 17.3543 36.3577 17.5995 36.5437L21.3431 38.8486C21.9031 39.1832 22.2528 39.8149 22.2528 40.4843V51.8973C22.2528 52.5663 22.6028 53.1984 23.1625 53.5329L31.9797 58.8862C32.2597 59.0721 32.6093 59.0721 32.8894 58.8862C33.1694 58.7373 33.3444 58.4028 33.3444 58.0682L33.3093 33.6812Z" fill="#D8D0CC"/>
<path d="M104.616 0.111573C104.337 -0.0373538 103.987 -0.0373538 103.741 0.111573C103.462 0.29749 103.287 0.5947 103.287 0.929223V25.0936C103.287 25.3165 103.182 25.5394 102.972 25.6884C102.762 25.7997 102.552 25.7997 102.342 25.6884L98.6333 23.4207C98.3614 23.2562 98.0539 23.1697 97.741 23.1697C97.4281 23.1697 97.1206 23.2562 96.8487 23.4207L82.0135 32.5287C81.4537 32.8632 81.1038 33.4953 81.1038 34.1643V52.343C81.1038 53.0121 81.4537 53.6445 82.0135 53.979L96.8487 63.087C97.1206 63.2515 97.4281 63.338 97.741 63.338C98.0539 63.338 98.3614 63.2515 98.6333 63.087L113.468 53.979C114.028 53.6445 114.378 53.0124 114.378 52.343V7.02621C114.378 6.31986 114.028 5.68812 113.468 5.35328L104.617 0.111573H104.616ZM103.252 46.358C103.252 46.5439 103.182 46.6925 103.042 46.7668L97.9685 49.8894C97.8976 49.9262 97.8198 49.9453 97.741 49.9453C97.6621 49.9453 97.5843 49.9262 97.5135 49.8894L92.4403 46.7668C92.3001 46.6925 92.2302 46.5066 92.2302 46.358V40.1124C92.2302 39.9265 92.3001 39.7779 92.4403 39.7036L97.5135 36.5806C97.5843 36.5439 97.6621 36.5248 97.741 36.5248C97.8198 36.5248 97.8976 36.5439 97.9685 36.5806L103.042 39.7036C103.182 39.7775 103.252 39.9638 103.252 40.1124V46.358Z" fill="#D8D0CC"/>
<path d="M153.985 39.9639C154.545 39.6293 154.86 38.9973 154.86 38.3279V33.9042C154.86 33.2351 154.51 32.6031 153.985 32.2686L139.255 23.1979C138.983 23.0334 138.676 22.947 138.363 22.947C138.05 22.947 137.743 23.0334 137.471 23.1979L122.636 32.3055C122.076 32.6401 121.726 33.2721 121.726 33.9415V52.1202C121.726 52.7892 122.076 53.4213 122.636 53.7558L137.366 62.6779C137.926 63.0124 138.59 63.0124 139.115 62.6779L148.037 57.3995C148.317 57.2506 148.492 56.9161 148.492 56.5816C148.492 56.247 148.317 55.9125 148.037 55.7636L133.132 46.6556C132.852 46.47 132.677 46.1725 132.677 45.8379V40.1501C132.677 39.8156 132.852 39.481 133.132 39.3321L137.786 36.5067C137.922 36.4156 138.08 36.3673 138.241 36.3673C138.401 36.3673 138.559 36.4156 138.695 36.5067L143.349 39.3321C143.629 39.518 143.804 39.8153 143.804 40.1501V44.6111C143.804 44.9457 143.979 45.2802 144.258 45.4288C144.538 45.6147 144.888 45.6147 145.168 45.4288L153.985 39.9639V39.9639Z" fill="#D8D0CC"/>
<path d="M138.136 39.1089C138.187 39.0726 138.248 39.0532 138.31 39.0532C138.373 39.0532 138.433 39.0726 138.485 39.1089L141.319 40.8561C141.424 40.9301 141.494 41.0417 141.494 41.1906V44.6851C141.494 44.8337 141.424 44.9453 141.319 45.0196L138.485 46.7669C138.433 46.8032 138.373 46.8225 138.31 46.8225C138.248 46.8225 138.187 46.8032 138.136 46.7669L135.301 45.0196C135.196 44.9453 135.126 44.8337 135.126 44.6851V41.1906C135.126 41.0417 135.196 40.9301 135.301 40.8561L138.136 39.1089V39.1089Z" fill="#539E43"/>
<mask id="mask0_6:36" style="mask-type:alpha" maskUnits="userSpaceOnUse" x="40" y="23" width="34" height="40">
<path d="M58.1162 23.2721C57.8444 23.1077 57.5369 23.0212 57.2241 23.0212C56.9112 23.0212 56.6038 23.1077 56.3319 23.2721L41.6018 32.3052C41.0417 32.6397 40.7269 33.2718 40.7269 33.9408V52.0456C40.7269 52.7146 41.0768 53.3467 41.6018 53.6812L56.3319 62.7149C56.6038 62.8793 56.9112 62.9658 57.2241 62.9658C57.5369 62.9658 57.8444 62.8793 58.1162 62.7149L72.8467 53.6812C73.4064 53.3467 73.7216 52.7146 73.7216 52.0456V33.9412C73.7216 33.2721 73.3713 32.6401 72.8467 32.3055L58.1162 23.2721Z" fill="white"/>
</mask>
<g mask="url(#mask0_6:36)">
<path d="M58.1162 23.2721C57.8444 23.1077 57.5369 23.0212 57.2241 23.0212C56.9112 23.0212 56.6038 23.1077 56.3319 23.2721L41.6018 32.3052C41.0417 32.6397 40.7269 33.2718 40.7269 33.9408V52.0456C40.7269 52.7146 41.0768 53.3467 41.6018 53.6812L56.3319 62.7149C56.6038 62.8793 56.9112 62.9658 57.2241 62.9658C57.5369 62.9658 57.8444 62.8793 58.1162 62.7149L72.8467 53.6812C73.4064 53.3467 73.7216 52.7146 73.7216 52.0456V33.9412C73.7216 33.2721 73.3713 32.6401 72.8467 32.3055L58.1162 23.2721Z" fill="url(#paint0_linear_6:36)"/>
<path d="M72.8815 32.3055L58.0815 23.2722C57.936 23.1941 57.7836 23.1318 57.6264 23.0862L41.0417 53.273C41.1791 53.4512 41.3451 53.6023 41.5319 53.7192L56.332 62.7529C56.7518 63.0131 57.2417 63.0874 57.6964 62.9385L73.2666 32.6777C73.1616 32.5291 73.0214 32.4172 72.8815 32.3059V32.3055Z" fill="url(#paint1_linear_6:36)"/>
<path fill-rule="evenodd" clip-rule="evenodd" d="M72.9167 53.6815C73.3366 53.4213 73.6514 52.9751 73.7916 52.492L57.5562 23.0489C57.1363 22.9746 56.6813 23.0116 56.2968 23.2718L41.6015 32.2685L57.4512 62.9754C57.6817 62.9353 57.9056 62.8603 58.116 62.7525L72.9164 53.6818L72.9167 53.6815Z" fill="url(#paint2_linear_6:36)"/>
<path fill-rule="evenodd" clip-rule="evenodd" d="M72.9166 53.6815L58.1514 62.7152C57.9429 62.8281 57.7183 62.9035 57.4866 62.9381L57.7666 63.4959L74.1412 53.4216V53.1984L73.7213 52.4547C73.6514 52.9752 73.3365 53.4213 72.9166 53.6815V53.6815Z" fill="url(#paint3_linear_6:36)"/>
<path fill-rule="evenodd" clip-rule="evenodd" d="M72.9166 53.6815L58.1514 62.7152C57.9429 62.8281 57.7183 62.9035 57.4866 62.9381L57.7666 63.4959L74.1412 53.4216V53.1984L73.7213 52.4547C73.6514 52.9752 73.3365 53.4213 72.9166 53.6815V53.6815Z" fill="url(#paint4_linear_6:36)"/>
</g>
</g>
<defs>
<linearGradient id="paint0_linear_6:36" x1="63.2253" y1="30.0063" x2="45.6513" y2="55.9958" gradientUnits="userSpaceOnUse">
<stop stop-color="#41873F"/>
<stop offset="0.3288" stop-color="#418B3D"/>
<stop offset="0.6352" stop-color="#419637"/>
<stop offset="0.9319" stop-color="#3FA92D"/>
<stop offset="1" stop-color="#3FAE2A"/>
</linearGradient>
<linearGradient id="paint1_linear_6:36" x1="54.9877" y1="45.1142" x2="96.5042" y2="23.885" gradientUnits="userSpaceOnUse">
<stop offset="0.1376" stop-color="#41873F"/>
<stop offset="0.4032" stop-color="#54A044"/>
<stop offset="0.7136" stop-color="#66B848"/>
<stop offset="0.9081" stop-color="#6CC04A"/>
</linearGradient>
<linearGradient id="paint2_linear_6:36" x1="40.1887" y1="42.9941" x2="74.2741" y2="42.9941" gradientUnits="userSpaceOnUse">
<stop offset="0.09192" stop-color="#6CC04A"/>
<stop offset="0.2864" stop-color="#66B848"/>
<stop offset="0.5968" stop-color="#54A044"/>
<stop offset="0.8624" stop-color="#41873F"/>
</linearGradient>
<linearGradient id="paint3_linear_6:36" x1="40.1889" y1="58.0057" x2="74.2739" y2="58.0057" gradientUnits="userSpaceOnUse">
<stop offset="0.09192" stop-color="#6CC04A"/>
<stop offset="0.2864" stop-color="#66B848"/>
<stop offset="0.5968" stop-color="#54A044"/>
<stop offset="0.8624" stop-color="#41873F"/>
</linearGradient>
<linearGradient id="paint4_linear_6:36" x1="79.2397" y1="29.1502" x2="69.5354" y2="77.009" gradientUnits="userSpaceOnUse">
<stop stop-color="#41873F"/>
<stop offset="0.3288" stop-color="#418B3D"/>
<stop offset="0.6352" stop-color="#419637"/>
<stop offset="0.9319" stop-color="#3FA92D"/>
<stop offset="1" stop-color="#3FAE2A"/>
</linearGradient>
<clipPath id="clip0_6:36">
<rect width="155" height="101" fill="white"/>
</clipPath>
</defs>
</svg>
