<svg width="155" height="155" viewBox="0 0 155 155" fill="none" xmlns="http://www.w3.org/2000/svg">
<path d="M77.5 89.4835C84.1878 89.4835 89.6094 84.0619 89.6094 77.3741C89.6094 70.6863 84.1878 65.2647 77.5 65.2647C70.8122 65.2647 65.3906 70.6863 65.3906 77.3741C65.3906 84.0619 70.8122 89.4835 77.5 89.4835Z" fill="#A044FF"/>
<path d="M77.5 105.139C62.9452 105.491 48.4268 103.529 34.4875 99.326C28.0483 97.2848 22.0426 94.0693 16.7739 89.842C14.7634 88.3978 13.0891 86.5359 11.8659 84.3838C10.6427 82.2317 9.89961 79.8405 9.6875 77.3742C9.6875 69.3674 18.4837 61.5206 33.2184 56.3862C47.5304 51.8367 62.484 49.6318 77.5 49.8568C92.3156 49.6498 107.069 51.8149 121.2 56.2699C127.402 58.247 133.204 61.3071 138.337 65.3084C140.314 66.6852 141.963 68.4797 143.168 70.5648C144.374 72.6499 145.106 74.9746 145.312 77.3742C145.312 85.6957 135.48 94.1287 119.641 99.3696C105.971 103.435 91.7592 105.381 77.5 105.139ZM77.5 55.65C63.134 55.4579 48.829 57.554 35.122 61.8596C21.5595 66.592 15.4806 73.0632 15.4806 77.3596C15.4806 81.8546 22.0148 88.9217 36.362 93.8284C49.6972 97.8286 63.582 99.6907 77.5 99.3454C91.142 99.5894 104.741 97.7435 117.824 93.872C132.719 88.9362 139.5 81.8595 139.5 77.3742C139.256 75.835 138.695 74.3631 137.853 73.0517C137.011 71.7403 135.906 70.6177 134.608 69.7549C130.015 66.2052 124.832 63.4931 119.297 61.7434C105.778 57.4991 91.6679 55.442 77.5 55.65Z" fill="#A044FF"/>
<path d="M49.9875 137.771C47.7279 137.823 45.495 137.274 43.5163 136.182C36.58 132.181 34.1775 120.643 37.0886 105.313C40.2983 90.6415 45.8597 76.5859 53.5574 63.6904C60.7781 50.7532 70.0222 39.0546 80.9391 29.0382C85.7497 24.6531 91.2992 21.1552 97.3304 18.7064C99.5118 17.6841 101.891 17.1542 104.301 17.1542C106.71 17.1542 109.089 17.6841 111.271 18.7064C118.483 22.8624 120.871 35.5918 117.505 51.9297C114.196 65.805 108.779 79.0908 101.443 91.324C94.4761 104.108 85.5231 115.705 74.9183 125.681C69.9331 130.238 64.1474 133.832 57.8538 136.284C55.3342 137.219 52.6747 137.722 49.9875 137.771ZM58.5755 66.5676C51.2329 78.9159 45.9026 92.3543 42.7849 106.378C40.1063 120.498 42.6783 128.989 46.4177 131.149C50.2927 133.392 59.6993 131.266 71.1208 121.287C81.2444 111.73 89.7898 100.63 96.4391 88.3983C103.467 76.7032 108.663 64.001 111.847 50.7333C115.015 35.3544 112.278 25.9382 108.393 23.7004C106.938 23.1425 105.382 22.8928 103.824 22.967C102.267 23.0412 100.742 23.4377 99.3454 24.1314C93.9769 26.3467 89.0414 29.4917 84.7657 33.4218C74.3355 43.0162 65.5054 54.2157 58.6094 66.5966L58.5755 66.5676Z" fill="#A044FF"/>
<path d="M104.998 137.834C98.4348 137.834 90.0987 133.862 81.4187 126.398C70.3105 116.29 60.9101 104.452 53.5816 91.3433C45.9805 78.6254 40.4632 64.7732 37.2388 50.3119C35.8405 43.9496 35.5814 37.3897 36.4735 30.9369C36.6798 28.5432 37.4087 26.2238 38.6088 24.1424C39.8089 22.061 41.4511 20.2682 43.4194 18.8905C50.6221 14.7201 62.8429 19.0068 75.3155 30.0796C85.684 39.8745 94.489 51.2017 101.423 63.6661C109.02 76.0872 114.595 89.6361 117.941 103.806C119.399 110.402 119.624 117.211 118.604 123.888C118.361 126.351 117.589 128.732 116.34 130.868C115.091 133.004 113.395 134.845 111.368 136.264C109.421 137.343 107.223 137.885 104.998 137.834ZM58.5949 88.4274C65.6253 100.955 74.6049 112.285 85.1968 121.99C96.0904 131.362 104.732 133.377 108.447 131.193C112.322 128.941 115.18 119.747 112.235 104.872C109.008 91.343 103.661 78.4101 96.3907 66.553C89.7733 54.6235 81.369 43.777 71.4696 34.3905C59.7283 23.9668 50.2055 21.6369 46.3257 23.8844C45.1164 24.8671 44.124 26.0899 43.4112 27.4755C42.6984 28.8611 42.2806 30.3795 42.1843 31.9347C41.4142 37.6895 41.665 43.5351 42.9254 49.2027C46.0268 63.0323 51.3183 76.2774 58.5998 88.4371L58.5949 88.4274Z" fill="#A044FF"/>
</svg>
