<svg width="155" height="155" viewBox="0 0 155 155" fill="none" xmlns="http://www.w3.org/2000/svg">
<path d="M104.715 43.6714L104.231 46.1966C103.482 50.9822 103.753 52.3514 105.807 54.1274L107.79 55.7678L105.736 64.9258C104.509 70.3895 103.004 74.9685 102.048 76.4733C101.228 77.7714 100.272 79.683 100.065 80.7099C99.7231 81.937 98.5606 83.1706 96.7846 84.262C95.2152 85.1533 92.1346 87.5428 89.9517 89.461C88.2079 91.0303 87.0067 91.9926 86.3544 92.406L84.2231 94.0916C83.675 94.9044 83.2628 95.8009 83.0025 96.746C82.854 97.437 82.9379 97.8955 83.1575 98.2314C83.3706 98.5543 83.7387 98.7803 84.2425 98.9224C84.8388 99.0622 85.4527 99.1123 86.0638 99.071C87.4463 98.9765 88.8146 98.734 90.1454 98.3476C90.5975 98.2249 90.9527 98.1087 91.2627 98.0053C91.7406 97.4176 92.845 96.3068 94.8019 94.3758C99.9944 89.2543 101.977 86.4514 99.9298 87.207C99.1742 87.4783 99.5165 86.7937 100.815 85.4245C103.553 82.7572 105.122 78.7272 108.403 66.0883C110.999 56.1101 110.999 55.9681 112.911 55.9681C113.809 55.9681 116.347 56.123 116.347 56.123V43.6714H110.521H104.715ZM129.509 64.112C129.096 64.112 128.411 64.732 128.004 65.4166C127.255 66.6437 128.14 67.3928 139.416 74.4324C146.113 78.6755 151.512 82.2922 151.377 82.5699C151.241 82.7701 145.771 86.3287 139.216 90.4297C127.32 97.8051 127.255 97.8762 128.346 99.381C129.716 101.157 128.346 101.771 143.788 92.1347L155 84.9595V79.5603L142.49 71.8362C135.728 67.5995 129.851 64.1831 129.509 64.112ZM25.6267 64.8676C25.2844 64.8676 19.4073 68.3551 12.6454 72.5208L0 80.2449V85.6441L12.5744 93.5039C19.5494 97.8051 25.4265 101.364 25.6977 101.364C25.969 101.364 26.5179 100.744 27.0669 99.9945C27.8871 98.6964 27.196 98.1474 15.6485 90.8366C4.65 83.9326 3.4875 82.9768 4.58542 82.2276C5.27 81.7497 10.4625 78.5335 16.0683 75.0524C28.8494 67.1926 28.1648 67.7351 27.1379 66.0947C26.731 65.4166 26.04 64.803 25.6331 64.8676H25.6267ZM81.7108 65.0162C79.825 65.0033 75.7692 67.8772 63.6275 77.7908C63.1044 79.0372 63.0592 79.8962 63.2981 80.4516C63.4531 80.8326 63.7373 81.0974 64.1313 81.2912C64.5188 81.4849 65.0225 81.6012 65.5779 81.6464C66.6823 81.7433 67.9869 81.5689 69.0396 81.3622L69.75 81.2008C69.9932 80.8747 70.3125 80.613 70.68 80.4387C71.4292 80.0253 74.5744 77.1578 77.7196 74.0837C83.2544 68.4778 84.5525 65.9462 82.2985 65.126C82.1136 65.0524 81.9163 65.0151 81.7173 65.0162H81.7108ZM95.8933 68.9106C94.2335 68.9558 91.2433 70.8803 86.1219 74.9685C83.5515 77.0545 81.924 78.1783 81.0521 78.4108L77.6679 81.0845C76.3956 83.4095 76.2083 84.8497 76.5442 85.6441C76.6282 85.84 76.7503 86.0174 76.9032 86.1659C77.0562 86.3145 77.2371 86.4313 77.4354 86.5095C77.9288 86.7043 78.4549 86.803 78.9854 86.8001C80.253 86.7866 81.5131 86.602 82.7313 86.2512C83.3661 86.0808 83.9932 85.8826 84.6106 85.657L84.7979 85.5795L85.1402 85.3987C85.786 84.5655 87.2715 82.9962 89.1315 81.1878C95.0085 75.5174 98.0117 71.4874 97.3981 69.9826C97.1204 69.2528 96.6425 68.8847 95.8933 68.9106ZM80.2383 75.8856C79.7604 75.9372 78.6883 76.7639 76.7573 78.456C73.9673 80.923 70.9254 82.3439 69.8727 81.711C69.6281 81.7662 69.3826 81.8179 69.1365 81.866C68.0644 82.0791 66.7275 82.2535 65.5327 82.1566C64.9698 82.1225 64.418 81.9846 63.9052 81.7497C63.4216 81.5286 63.0356 81.138 62.8202 80.6518C62.5813 80.0705 62.5813 79.3472 62.8525 78.4237L58.6546 81.8724L49.1544 89.7322V102.475L80.2835 77.9522C80.2775 77.6837 80.3123 77.4159 80.3869 77.1578C80.6258 76.2924 80.6129 75.8533 80.2383 75.892V75.8856ZM93.6329 80.0124C93.1615 80.0124 92.3735 80.6776 91.1142 82.0145C89.4027 83.8422 86.7096 85.6118 85.2823 85.9735L85.0627 86.0897C84.8284 86.1865 84.5915 86.2769 84.3523 86.361C83.9648 86.4901 83.461 86.6451 82.8798 86.8001C81.7173 87.1166 80.2706 87.4072 78.979 87.3749C78.37 87.3741 77.767 87.2557 77.2029 87.0262C76.6713 86.8071 76.2453 86.3904 76.0146 85.8637C75.64 84.966 75.7885 83.7066 76.6088 81.9176L49.1479 103.547V111.329H61.2121L86.8 91.2306C87.4652 90.4943 88.4662 89.4868 89.816 88.2274C93.4327 84.8756 94.2529 83.7195 94.2529 82.008C94.2529 80.6776 94.1044 80.006 93.6329 80.006V80.0124ZM99.7231 92.6062L97.5338 94.7891C96.3067 95.9516 94.1173 97.3853 92.619 97.9989L92.3219 98.1281L92.3025 98.1603L92.2379 98.2249C92.1798 98.2701 92.154 98.2766 92.1087 98.296C91.5106 98.5224 90.903 98.7228 90.2875 98.8966C88.9191 99.2949 87.5116 99.5439 86.0896 99.6393C85.4173 99.6824 84.7423 99.6236 84.0875 99.4649C83.5193 99.3398 83.0176 99.0085 82.6796 98.5349C82.3696 98.057 82.2792 97.4176 82.4535 96.6297C82.5922 96.0688 82.7982 95.5266 83.0671 95.0151L62.4198 111.329H89.8806L93.1615 107.57C97.6694 102.313 99.7231 98.5543 99.7231 95.3381V92.6062Z" fill="#A044FF"/>
</svg>
